<svg xmlns="http://www.w3.org/2000/svg" viewBox="0 0 114.6 75"><defs><style>.cls-1{fill:#008d36;}</style></defs><g id="Layer_2" data-name="Layer 2"><g id="Layer_1-2" data-name="Layer 1"><path class="cls-1" d="M60.74,0,59.33,30.71c-1.27-.19-3.31-.44-6.11-.73-1.72-.1-4.52-.19-8.4-.29q-.28,2.88-1,13.91Q43.26,54.29,42,75H18.41Q18,65.13,16.94,44q-.48-7.32-1-14.3L8.2,30l-7,.73L0,0Z"/><path class="cls-1" d="M114.6,0l-2,30.71c-1.21-.19-3.76-.47-7.67-.83-2.34-.09-5.11-.16-8.3-.19L95.8,45.41q5,.11,15.53-.73c-.33,1.46-.83,3.87-1.52,7.22q-.53,3-1.17,7.18c-.91-.19-3-.49-6.3-.88A67.42,67.42,0,0,0,95.12,58l-.39,17H67.33L65.82,36.72Q65.43,23.54,63.62,0Z"/></g></g></svg>